# xmcd
#
# Track frame offsets:
#        150
#        1725
#        29520
#        54420
#        82732
#        103710
#        137657
#        156017
#        174035
#        222582
#        230085
#        262980
#        284265
#
# Disc length: 4044 seconds
#
# Revision: 0
# Processed by: cddbd v1.5.1PL0 Copyright (c) Steve Scherf et al.
# Submitted via: ExactAudioCopy v0.95a5
#
DISCID=a20fca0d
DTITLE=flipside - deep
DYEAR=2005
DGENRE=Instrumental
TTITLE0=outline
TTITLE1=close
TTITLE2=sunday
TTITLE3=moonfriend
TTITLE4=are you ok?
TTITLE5=35mm
TTITLE6=snowflake
TTITLE7=it's ok!
TTITLE8=hum hub hush dub
TTITLE9=are you there?
TTITLE10=adagio(for valdemar)
TTITLE11=outside(summer remix)
TTITLE12=it's ok!(boracay remix)
EXTD=
EXTT0=
EXTT1=
EXTT2=
EXTT3=
EXTT4=
EXTT5=
EXTT6=
EXTT7=
EXTT8=
EXTT9=
EXTT10=
EXTT11=
EXTT12=
PLAYORDER=
